<mxfile host="app.diagrams.net" modified="2023-12-07T03:29:52.827Z" agent="Mozilla/5.0 (Windows NT 10.0; Win64; x64) AppleWebKit/537.36 (KHTML, like Gecko) Chrome/119.0.0.0 Safari/537.36 Edg/119.0.0.0" etag="X55uMk1cNHWba7Eah7Fi" version="22.1.7" type="github">
  <diagram name="第 1 页" id="a51iZKUwvhawRj8yX2P-">
    <mxGraphModel dx="1678" dy="933" grid="1" gridSize="10" guides="1" tooltips="1" connect="1" arrows="1" fold="1" page="1" pageScale="1" pageWidth="1920" pageHeight="1200" math="0" shadow="0">
      <root>
        <mxCell id="0" />
        <mxCell id="1" parent="0" />
        <mxCell id="rU6CvFpPGq4p54nIvDIV-2" style="edgeStyle=orthogonalEdgeStyle;rounded=0;orthogonalLoop=1;jettySize=auto;html=1;" edge="1" parent="1" source="rU6CvFpPGq4p54nIvDIV-1">
          <mxGeometry relative="1" as="geometry">
            <mxPoint x="760" y="360" as="targetPoint" />
          </mxGeometry>
        </mxCell>
        <mxCell id="rU6CvFpPGq4p54nIvDIV-1" value="执掌易回调" style="rounded=0;whiteSpace=wrap;html=1;" vertex="1" parent="1">
          <mxGeometry x="1040" y="140" width="140" height="70" as="geometry" />
        </mxCell>
        <mxCell id="rU6CvFpPGq4p54nIvDIV-5" value="behavior·= 120&lt;br&gt;设备信息回调&lt;br&gt;" style="text;html=1;align=center;verticalAlign=middle;resizable=0;points=[];autosize=1;strokeColor=none;fillColor=none;" vertex="1" parent="1">
          <mxGeometry x="770" y="120" width="100" height="40" as="geometry" />
        </mxCell>
        <mxCell id="rU6CvFpPGq4p54nIvDIV-7" value="执掌易设备信息表" style="strokeWidth=2;html=1;shape=mxgraph.flowchart.database;whiteSpace=wrap;" vertex="1" parent="1">
          <mxGeometry x="690" y="370" width="160" height="60" as="geometry" />
        </mxCell>
        <mxCell id="rU6CvFpPGq4p54nIvDIV-8" value="依据执掌易的设备信息回调来调整我们系统数据库中保存的设备西信息的正确性" style="text;html=1;align=center;verticalAlign=middle;resizable=0;points=[];autosize=1;strokeColor=#d6b656;fillColor=#fff2cc;" vertex="1" parent="1">
          <mxGeometry x="560" y="240" width="440" height="30" as="geometry" />
        </mxCell>
        <mxCell id="rU6CvFpPGq4p54nIvDIV-9" value="" style="endArrow=none;dashed=1;html=1;rounded=0;" edge="1" parent="1">
          <mxGeometry width="50" height="50" relative="1" as="geometry">
            <mxPoint x="470" y="320" as="sourcePoint" />
            <mxPoint x="1800" y="320" as="targetPoint" />
          </mxGeometry>
        </mxCell>
        <mxCell id="rU6CvFpPGq4p54nIvDIV-67" style="edgeStyle=orthogonalEdgeStyle;rounded=0;orthogonalLoop=1;jettySize=auto;html=1;exitX=0.5;exitY=1;exitDx=0;exitDy=0;" edge="1" parent="1" source="rU6CvFpPGq4p54nIvDIV-84">
          <mxGeometry relative="1" as="geometry">
            <mxPoint x="904.9999999999995" y="755" as="targetPoint" />
            <mxPoint x="1064.9999999999995" y="605" as="sourcePoint" />
            <Array as="points">
              <mxPoint x="1325" y="690" />
              <mxPoint x="906" y="690" />
              <mxPoint x="906" y="755" />
            </Array>
          </mxGeometry>
        </mxCell>
        <mxCell id="rU6CvFpPGq4p54nIvDIV-21" value="如今我们系统工作人员一个执掌易账号下只会有一个工作手机，将对应的执掌易账号和我们系统账号进行绑定，一个执掌易账号对应一个我们系统账号" style="text;html=1;align=center;verticalAlign=middle;resizable=0;points=[];autosize=1;strokeColor=#d6b656;fillColor=#fff2cc;" vertex="1" parent="1">
          <mxGeometry x="815" y="333" width="820" height="30" as="geometry" />
        </mxCell>
        <mxCell id="rU6CvFpPGq4p54nIvDIV-90" style="edgeStyle=orthogonalEdgeStyle;rounded=0;orthogonalLoop=1;jettySize=auto;html=1;" edge="1" parent="1" source="rU6CvFpPGq4p54nIvDIV-29">
          <mxGeometry relative="1" as="geometry">
            <mxPoint x="1629.9999999999995" y="172.5" as="targetPoint" />
          </mxGeometry>
        </mxCell>
        <mxCell id="rU6CvFpPGq4p54nIvDIV-29" value="执掌易服务器" style="rounded=0;whiteSpace=wrap;html=1;" vertex="1" parent="1">
          <mxGeometry x="1390" y="140" width="130" height="65" as="geometry" />
        </mxCell>
        <mxCell id="rU6CvFpPGq4p54nIvDIV-53" value="互仲" style="rounded=1;whiteSpace=wrap;html=1;fillColor=#dae8fc;strokeColor=#6c8ebf;" vertex="1" parent="1">
          <mxGeometry x="1730" y="333" width="120" height="60" as="geometry" />
        </mxCell>
        <mxCell id="rU6CvFpPGq4p54nIvDIV-54" value="执掌易" style="rounded=1;whiteSpace=wrap;html=1;fillColor=#dae8fc;strokeColor=#6c8ebf;" vertex="1" parent="1">
          <mxGeometry x="1730" y="240" width="120" height="60" as="geometry" />
        </mxCell>
        <mxCell id="rU6CvFpPGq4p54nIvDIV-69" style="edgeStyle=orthogonalEdgeStyle;rounded=0;orthogonalLoop=1;jettySize=auto;html=1;" edge="1" parent="1" source="rU6CvFpPGq4p54nIvDIV-63">
          <mxGeometry relative="1" as="geometry">
            <mxPoint x="1094.9999999999995" y="800" as="targetPoint" />
          </mxGeometry>
        </mxCell>
        <mxCell id="rU6CvFpPGq4p54nIvDIV-63" value="互仲系统" style="rounded=0;whiteSpace=wrap;html=1;" vertex="1" parent="1">
          <mxGeometry x="835" y="765" width="150" height="70" as="geometry" />
        </mxCell>
        <mxCell id="rU6CvFpPGq4p54nIvDIV-68" value="通过系统进行拨号" style="text;html=1;align=center;verticalAlign=middle;resizable=0;points=[];autosize=1;strokeColor=none;fillColor=none;" vertex="1" parent="1">
          <mxGeometry x="990" y="700" width="120" height="30" as="geometry" />
        </mxCell>
        <mxCell id="rU6CvFpPGq4p54nIvDIV-74" value="" style="shape=image;verticalLabelPosition=bottom;labelBackgroundColor=default;verticalAlign=top;aspect=fixed;imageAspect=0;image=data:image/png,iVBORw0KGgoAAAANSUhEUgAAAKwAAACYCAYAAAB52gJjAAAWfUlEQVR4Ae1dvY4dtw52e/1IKVzsK/gZ1oDrlOm3tvMSB2lcLlK6WSBpDWy1neHKQFonhhPogpQ4oihKM5ojzc6cwwUW8yOJkqhPFCV9R/PC2Z9p4EAaeHGgslpRTQMuA+zD3Y27ubl1p88z2vl8crc3d+5hJtqiYJR14+66CFuQ45L8RP0W62VB9uOi/Ove/vLd/T4uAwd66NJOoN/bk5uDmaxKBliM8HDnbubAKBpUCm56XgKgJoEzkZfkp9VviV5msh4bPBawn0+37kZD61/v3Ys/Xvv/Tx/ck6jk05efMezNX2kAGgFNXhotedIBm0QpPGgNWoh6yNeHrN9AwBb0gWBUQDq1OYD503v35tNrJwHr3IO7WzKaT8L+y12CKUy7wUKDy0D/zCUQYdRxsFcK0w896zb4HH6o9fIoDc+ahydWv5AfT6vdc3lZfkJmkp8mbObd08d/3MtffyQW5/ff/navPv6HKeH+f7/E/7ePUSCEvf34w70K4S/FUM/TxrAA2Mfvk1zKCyTzNJBvS368zWIp/3Rv/vjZvfsW36R3FP7FvVMB61zRaqeC/NPXHy2Ahd7A/BdsXAIshNE9yOY9h99TGI8L7z670y2T7YuH/pI6BKF8LkPmEQQUL1p+IIOVIalfUdBMAADoH/f+K0WrWMCvAM7ofwK4ONgRwAHQGPbbvySUXUH+3+4lhT1+dxHMLBrcNuSXtieT8+2D++nTB3cfhnxwC3768mWKcP9Ez2XAugY9gwFY7hKA/8YtJc8I78nq0jVO3Hjv1HtUCUBRxqQFuJnJL4mrPij51eqnylj2EsBFVg4tLoEJkjNLCBaPg4sDNM1JdgIeKjqEAOW6/EA+dGZuIEKeANgEpGRRnXPgCjz9GSJWAJsYN16X/L4fYGVjy7wAYAh2AIoGQgVAtYrM5Sfzz56V/KRM3iGz9A0vADToFvzn3v8qrS17FuDqD1gB9MX5QV0rgBX+K1jVN395gE4TMZqQwVXEL1pvTcWP3xssLDYggc03ePTxxHCaZRaA+kDAlREUAAU3oewSsOFbipt9VvKr1m9WYCVCAOojATdERcBEwOIwL1wC7mPGDEAeG/ZjgHOuYmFX5wcZQPtS2/MMheVEi6v5tCIeF9FkGBonXTichwnX3YPodZgxuQM3qfuAdYalMgkyAj5Ll8SR4WxYmsuPK2W6l/J8vjT5qtZvkrHiJgz9EoAAUpp0vfr4I1lDLVtYyN+DltJGV6ICWDHpasvP4XyCJsqJBoJbQNY0XwmA2GXA6i5ikkPysNyHTZLZw9VpoMkSLtVOyXKX0xtgy7qxEKGBVmsokmePuMRIw1sWqr+4MMB6XzquE3NXQ/PBdKXY27IGAGSNGNOFwSR3haALA6yuG3t7ORowwF5OW15FTQywV9HMl1PJDLDoCKtrbusrPULm+tKUUooloVK0M9538/9qZYDZPN+RrMU9YFgGWKwDOMTaVtw5FRwh85zyZGnHAlafYccdoWz9MlnfFIvxnM4Hu0fTFqivFBqIFRMavi78knMgcNMhrhnz9WTYLqWtZ6nSWhjGDevTPD2kofVlfqU4OmBlzlfxPBCw6hom7btri+rw7r27D3pPKXyQLoY5R3J4I7Wub87tnjFml9gxq4GyFgal/f23f9x7uQM4VUNvjwbAajtbfucJrMft6YRsJyDInPBXC+ctf0BlOVvJVzASSbg1gJ7Iez3uEu2emkctowGWwsIVLSqB1MefWFHIN81J07pFF3LpEUEYmWL0Gq7YDpywE3bMyOLVQFkLw21klWNBuQ8GrHch/DoobOF5ELf+AIIKC1cocNxrz/bJeVShcAAsBzsCeG/UvKn884BFCyuG/funwPAX7yexqlWfQpMbzThQBNAdgZPecRDXQFkLA+YYydXjjQYs+kxxKDofsJ5wzCs18TxBc0en5lHrV/bZMUpiXeGNBzj5rQjcjAEF8WJbTFkVbhCAgmhOUccA1rsg06gIBifL/4CARZKxOmwI66tY2EkZpHm8inRZGBsWE5kiXRLmO5aeH2QgXKkkT3goW1j/WyhyBUJCnIzxd+DDnvnzkwrRG8Hc2yVA/cVJHLh0ySQPq9oFsLS9Sayn6MP6bbbYq3tYWM9KUhxzrHB0F9AFOBw1j5CrA1YFKySRFD75TGIbXAJifyUjGMkRuva/VIi614dzn7gUpnWCPO7ZgA2/vwn0Qj/JGg3YOPRLCwYgpWWPNqrcXqh53jISLY+uuLyVLGkFX5VZUQ/m/D1hDK5gMNr26gEgUaeJxWPuV/I+TMqoHehKbQUgpHd0ffso3AEqdGblOwCWZNu1UQNN1q5Rtho9jnRq8IFfNixrHbiWOyh6u8VbX+i1Gwfrc9wupQF2O133OzWlVuaVtL2ayD2FGWD31BpWllkNGGBnVWQR9qQBA+yeWsPKMquBDLCLqYA9Z74o6zzuwWxNnynCYn0+U/l8tvoSUs8igR5WEMiyImSAxRhLqICHBazf9OihvEybpRdL9FlKu8n7sYDVV0jCFjNbX56qmqxDp9RKHbBTyspNT8BWsukf9AyA7V+JzhIHAlbFCVEitV0+eBe3nnGTZOJK/Nlw8guoKAzd8Vep5YMtyIJh7xIMeBge6FAGP2SmB1rw1uDhCalclIXy42nlPZZlOnmRflHrt5vzcnpg+3J6PsAJdo+mnT7GRFtRFlk2/oxbl4IMwkkofJcPdpBoZwlkQNj+Tz2k2mqApbBwTcg/X1oAC43G/JCk5/gGjQdo850Wfg+FkHHhnW71EKwqEqUMmYeodPKo55Wxm7L63cStTgwjXsU5ZUkKxh7A4sX9eqNW0qFyrgGw4IdxS8kbFO/JYtGVGjQ95kb3ZzQQVUA4kx9reeVWy8tH45YfykmjQN7JmIyzyqIUL7ziFjUji7C9fbCw8aiiGnNMdgKet3AJBBttHZUT5MvOzPOE+xkLm1hXH3+5D1sDrAyT5YJG3c3phQxsxXJKRctnJmOu7jKPpc8AGqNWTj8TQrV9+9BgYdGSkNX0DRZ9SmhQ5i5kjQLxb91pJ6cXcksqi/pwd+tOJ3kqiQAsgHT6keZc3WUOS5+B1WTUykRbTYAlytqhTy8M1U+GceqEIQzBKDufByVNuLKv7CTylJMbE603PIShn0+qIDWfdF0btXK5S9Cg50NHVYd4YWEPXcGNC4+dma0mnZm9ATZRYGl4N8Amamp80CfajUJC9AsDrBy6acUCrmLoF/qi9d64MsAjGGC5Ntbcg37VFcpGYRcG2MbaW/TDacAAe7gmu+4CG2Cvu/0PV/sMsN6Xq/t7/WtJ67re50z9yFpY/5Kskfg8OmstqdjNak2+IH4vP7WWVQZYjJwsjNeS8zAPrFWOtbqUFGTXwnj2z32/SmdbFnosYPWVAL/1Cj9h73U6ow7YVXpcD1i9sr4QtbBVxbzaRAMBq661rqcQ1k5nbAOs2NGhoRtBVaDtAT78kBmXmMgK6+nY4RyZzCUL0H4JqkQFrJWlegKjqDvVYS3+jULINJeQXLxVLp3O2ATYuo+y0MIqvbFmRWthrMrsNqzFEqJqQzUri+880CF8euiM8M53SrkOC8/n+vlg8YxCCA2HJG1xCuN94XTGJsD6RmW8UAaTEqcVoyBoooWNxBEvAOUSwBKZa47cEeBioKyVJZYhghHeIWCFdfWcgnMB6zkBdjrje/ciOaA5+L0BwPcA3OkXBy18WA4kAmACspKFjQBAERJARKpJZMXMIpDiu/pdDbDlssR8YpwJsFBfzgWuF2B5qFEIBVjpsLv4Exl/wnictDVZ2KQlFOCBy0B+7RQX40Vr5H3I1BeNYJlSTTe1sClSclMBbKUsMR8FsMFNKPSpJPe2B6MQ0rH4k97kaYziuQGw3oJGip2yN4yAoKFfgpTWWOFo+WcCrJgANp3AmNTNKIQTwIJOM0OF316IJyz2Op2xAbC8iHZvGmAawM6cGiEW2vXWANtVndcrLLpUY3VwQMCCj0luh7xGN2Ss2ky6poH6sqeWov3dAQHbXklLcTkaMMBeTlteRU0MsFfRzJdTyQywfp204guG5Z2ua5IFmbNl2UU7DCSVhPpt4RviMVQjNkc6t1EGWJQ/u/+urMGeU7ACYGfLck6e3dKOBaw+++5P2wN1oIFYYYn4z86Tr8zgCTLxyzT85+pA/qFtadkUtTAdsFKCPVc0MBCw6vrmGNqer2Dc5atUmAX5Txip3/fCT6+yg+oQvJHsUwNlLawJsH6I9ktJvCOCFVhLzSvJZFppuoXK8u/MQmJ+ThW3Btd28t+7T69dibZHStYtOoWKK4KQfT2SBWM79P6ColtFfslJLlhJ3G71a6SwTedBDEdSwju+C6L14lwmq3vjrdH2SGEttD1K449U5e01hWQ3mnGgSNxI0DsOYrjfyCXIwRV7ZQTjBNjgn3IOQn5GQC6TKrnmypXFlYSyrvjkP7CwR/+ocpNL4MGTg6sK2EXUvFzmGqBOaYy210zbm3SHI2JllShGxC+q86M+eVBmKIRrtsrCfv3RcHrhVJocXFXALqLm5TKn7FbdGG2vlbY3qVmd6E2h4qYy6RKTrF4fVW6wsB5U6dDul7fqgFWOmp/W+8oyhWbaH+3kP5dQ+uinKH9Eyl/2S9YZMr3eCDBniEtXybIWc7+S92d8VLkBsHpx7e1ADTRZux7liHOQHtJGyDDAjtBqR5lx9OootCBq7cZBQdyQ1wbYIWrtKxSAxNe9+0oP0mByPDyT80tugD1fhyZhQw0YYDdUtmV1vgYMsOfr0CRsqIEMsH5vv7JwHHauuro7K2TOlnNDJZazGkiMCZlu4t9C+0xLkeXabhGSARYz3Qu9MAC5eNJKrZxbaG82j7GA1VcQLpt6qAN2tiG2iACbCpGEgY2zk16+vPYDAYudOerHl+nyqYdNgPXD8DPRCztYU9zfto8Oe2w3nBhIHVS36BQqroOoh02A9UXK9/2xIoPphU3KErqLj2DxIonYPjocPzoMOrovnBg46U+16lNocqMZB4rA2XT0jpNlasSYfoDFWVjc2gOALT/5L+8EVBG8drCuJI8riysJw9ne97V9dPgo1MPxgAWwzfqeZcBG602QO/Nq1MNDUw/HA/YMemF3sCLWjXp4ZOphA2C9FdyMXpgsacUjibqs/xr18LDUwwbAnjkUW/K+GmiYAPXJOM5P+shbJ8UAu05vu0iFLlOXIWe+OrikuVFetdIYYGvaOUDYJluzMHHeAVihOQywBwClFTFqwAAbdWF3B9CAAfYAjWRFjBrIAOv5AjukF4pZ8Ww5Yx2f8W4g+SXUahMfFnQ/u/mzjZozwGK2ta3QsD7a1QdfIlMAdrac2+hvJpexgNVXCYxeONMoGwVrgN0o6/XZDASsqg+jFyZt5YfhnF5IkXi4/DxnKYy/z6x2sLxxd03yPynnZVeNQcTJMHAPpBf65+eZQtjbjz/cqxAuj+jhaWNYACwj1fAD0Hia1pMUQW/5t7FID97KagdlUAx3zfRCUAICL0OcV08tzMfQyC+ws8J+3qxalEn9C28AQEYvBGUd9WRD3YetNn8JXKWJ2pItPUWmZHl1AWx6VqzRC6mhg99b+CAxxfJHp5baOcaCO200oxgwsvCRZoofzpOFtDKc0l4dYPFQMvzVQWBtfSVVCOsrGPPoEjxSXH4V6XgQnkLNDvxNZIp0SZjvWNwlScRmZ+6moc6VXQK0rMnXs+c/SBylLzE+IfbjdxddoygB7jJD0XCyYSfABiaX6hLUwqgiioVFi0q9OchIDkamtK1XoxdePb3QQ4ZARVRAPkEqhcn36YTO82HpHfRuLrMVqCy+0QuNXsjgYLdbaKCTT7+8qA3uwHKhzTFXuATNeViCQRrQNw7GZDa/0jMmXynVACs1crBnAJI6dehZD6MX9tSmybomDZiFvabWvoC6GmAvoBGvqQoZYNG5vqH1T0UVODvt7DctkdkwK56tg1Kt7V/BxgHbVBhQgE38W2iXDamHGWBRb0egFwaQ28mGOtL1FYTjUw91wOo6eN63iYWFDYe4iYCNs2Ev76OIgRY20RWV9jKoh02A9UMt7TyRIuKVh29KL6yNCLF41TuNrMFJGudQAXnauL8eAGvUw6Rd5ngGTYD1kv12qlz7Q7DKl6EotbCyTNhZYb6yajVC6tNth58hCzKKJK6EuuBFIarwL4hzogzc1z7PPoVVyCL+K4LR30WZ7NhQnt88o6pMjKEq7pl62AmwtW27WhipSOkES+mFHawrlQIanmhtWU9nltBONvzgnkhp03VJO/vI2mhGYngb0DveFocGrCfHRF+WKrj6CpbTqIcuYXN9++B+SuiI4Au/dvmvGZYD1lVGEw5OakcO4k6ADawr1SWohVGRFAuLLgAtrwUZjK3VHaxYFKMeJmAFnSBgf3bvvoW2ks9TE57cLWsfeq1fQc8FVwndLfarEPHcAFgCDdEH5eRLhnPLVwqT71OZHpT0DnpwkIlgTssBy1tqf9E1Vn5r1MNdUw8bAFtuYwvZmQYqE9QxJW1wB84sgAH2TAXuNTmOTl2GnPkazq8CzctYGsMAu1RTB4wHQBqOWVilGZ5JVL4BNurC7g6gAQPsARrJihg1YICNurC7A2ggAyw60DV6oVoptuSkhvd/ua6c/ctRlziQ4BIy3sRPhVWHnZCLMsCiHpq3O7cH7Lpy1uHVP3QsYPWVgONTCGG3i7bIZZvogJWxZp+fCbCz5XruCAMBq661XgaFsBNgPShPwIy68btM8fS8AFi0zDLMOSd2puIqSE1mLd06IOI+NWM5gRS+Tw33dHJh62mCPK1RCJ2TDDPeYnN8gY6AvYlrbghC2usH4LEw7lIk8QiEC9Jl50dBHpSOV7/l3iiEpK09Uwg7AjbnB3hrGSwsaYMNV5qfFScK5XTSKhd/CkN5Lrxyi5r1dKMQohbv4aven56PQnhMwIKVHjEzNQrhtXwcWVhDPuzL4ZtZWG8p2VCeuAhCJk+36KPKC81qEs0ohHunEHa0sJzSx0BYAyyAhU3GbhI/tAZY8ndZnr0srlEId00hBMDyyS+fADcsawlwJVbLHjbXQDIabZE7tD83UlvkmedhgM11cpg32oR2VOFxZzGuR47KZlauAXZWRfuOEFdcBpYTXLodgBVq2ADYgQox0aaBhRowwC5UlEXbhwYMsPtoByvFQg1kgEXnunk2uK8VhHV1WKixbtEGEmNCGTfxb2G1otdy4wLdZoDFNMmmwAIpch12SZJz4+CyDq3RKsstzXU4t0Ct6ccCVl9BOD71UAdsq+43ByycZxB5Ddg4G/byZvWoCQYCVl2jvQzqYQNg/bC/S3phB2uKRBijHvquteMPJzcCllEIsRfTUAxgZmEcQEk82m5dkC6z2uWdFn34U81a5aVRD0k5e6YeNgI2DsPO+WOGnp1eyDsHaXzl1aiHzqWfpQdFBr93Jx9O3i9gAYgzfilaVjpvayVIk2RGPdw99XA9YBPLJpa1uNM/6xIwq83ToUtQPrmkO1gRuUY93Dv1sBGwtIwEV/JDoaUrgMXgu+l3YE3pEMAsT7K48n34jVmX7W6jHu6aetgIWGYNk7HUHnalgWSk2qJk5Qlx79wNsL01uhN5fVZOllUGdxa7DG/z+Rlg53V02BibbM3CXGYjsEJDNAD2sO1mBb8gDRhgL6gxr6EqBthraOULquP/ASP0vrcV2Mc9AAAAAElFTkSuQmCC;" vertex="1" parent="1">
          <mxGeometry x="490" y="393" width="172" height="152" as="geometry" />
        </mxCell>
        <mxCell id="rU6CvFpPGq4p54nIvDIV-76" value="工作人员" style="text;html=1;align=center;verticalAlign=middle;resizable=0;points=[];autosize=1;strokeColor=none;fillColor=none;" vertex="1" parent="1">
          <mxGeometry x="1120" y="520" width="70" height="30" as="geometry" />
        </mxCell>
        <mxCell id="rU6CvFpPGq4p54nIvDIV-79" style="edgeStyle=orthogonalEdgeStyle;rounded=0;orthogonalLoop=1;jettySize=auto;html=1;exitX=0;exitY=0.3333333333333333;exitDx=0;exitDy=0;exitPerimeter=0;" edge="1" parent="1">
          <mxGeometry relative="1" as="geometry">
            <mxPoint x="860" y="440" as="targetPoint" />
            <mxPoint x="1114.9999999999995" y="590" as="sourcePoint" />
            <Array as="points">
              <mxPoint x="860" y="590" />
            </Array>
          </mxGeometry>
        </mxCell>
        <mxCell id="rU6CvFpPGq4p54nIvDIV-78" value="查询该用户对应的执掌易账号的设备信息" style="text;html=1;strokeColor=none;fillColor=none;align=center;verticalAlign=middle;whiteSpace=wrap;rounded=0;" vertex="1" parent="1">
          <mxGeometry x="850" y="560" width="260" height="30" as="geometry" />
        </mxCell>
        <mxCell id="rU6CvFpPGq4p54nIvDIV-81" value="" style="endArrow=classic;html=1;rounded=0;" edge="1" parent="1">
          <mxGeometry width="50" height="50" relative="1" as="geometry">
            <mxPoint x="870" y="443" as="sourcePoint" />
            <mxPoint x="960" y="443" as="targetPoint" />
          </mxGeometry>
        </mxCell>
        <mxCell id="rU6CvFpPGq4p54nIvDIV-83" style="edgeStyle=orthogonalEdgeStyle;rounded=0;orthogonalLoop=1;jettySize=auto;html=1;" edge="1" parent="1" source="rU6CvFpPGq4p54nIvDIV-82" target="rU6CvFpPGq4p54nIvDIV-84">
          <mxGeometry relative="1" as="geometry">
            <mxPoint x="1280" y="530" as="targetPoint" />
          </mxGeometry>
        </mxCell>
        <mxCell id="rU6CvFpPGq4p54nIvDIV-82" value="获取该执掌易账号下的iccid集合" style="text;html=1;strokeColor=none;fillColor=none;align=center;verticalAlign=middle;whiteSpace=wrap;rounded=0;" vertex="1" parent="1">
          <mxGeometry x="960" y="430" width="180" height="30" as="geometry" />
        </mxCell>
        <mxCell id="rU6CvFpPGq4p54nIvDIV-84" value="用户选择一个iccid进行拨号" style="text;html=1;strokeColor=none;fillColor=none;align=center;verticalAlign=middle;whiteSpace=wrap;rounded=0;" vertex="1" parent="1">
          <mxGeometry x="1250" y="515" width="150" height="30" as="geometry" />
        </mxCell>
        <mxCell id="rU6CvFpPGq4p54nIvDIV-85" value="" style="shape=flexArrow;endArrow=classic;html=1;rounded=0;" edge="1" parent="1">
          <mxGeometry width="50" height="50" relative="1" as="geometry">
            <mxPoint x="860" y="400" as="sourcePoint" />
            <mxPoint x="940" y="420" as="targetPoint" />
          </mxGeometry>
        </mxCell>
        <mxCell id="rU6CvFpPGq4p54nIvDIV-88" style="edgeStyle=orthogonalEdgeStyle;rounded=0;orthogonalLoop=1;jettySize=auto;html=1;entryX=0;entryY=0.5;entryDx=0;entryDy=0;" edge="1" parent="1" source="rU6CvFpPGq4p54nIvDIV-86" target="rU6CvFpPGq4p54nIvDIV-84">
          <mxGeometry relative="1" as="geometry" />
        </mxCell>
        <mxCell id="rU6CvFpPGq4p54nIvDIV-86" value="Actor" style="shape=umlActor;verticalLabelPosition=bottom;verticalAlign=top;html=1;outlineConnect=0;" vertex="1" parent="1">
          <mxGeometry x="1140" y="560" width="30" height="60" as="geometry" />
        </mxCell>
        <mxCell id="rU6CvFpPGq4p54nIvDIV-89" style="edgeStyle=orthogonalEdgeStyle;rounded=0;orthogonalLoop=1;jettySize=auto;html=1;" edge="1" parent="1" source="rU6CvFpPGq4p54nIvDIV-87">
          <mxGeometry relative="1" as="geometry">
            <mxPoint x="1489.9999999999995" y="230" as="targetPoint" />
          </mxGeometry>
        </mxCell>
        <mxCell id="rU6CvFpPGq4p54nIvDIV-87" value="调用执掌易拨号接口，传入token,iccid,um" style="text;html=1;strokeColor=none;fillColor=none;align=center;verticalAlign=middle;whiteSpace=wrap;rounded=0;" vertex="1" parent="1">
          <mxGeometry x="1125" y="785" width="195" height="30" as="geometry" />
        </mxCell>
        <mxCell id="rU6CvFpPGq4p54nIvDIV-91" value="" style="verticalLabelPosition=bottom;verticalAlign=top;html=1;shadow=0;dashed=0;strokeWidth=1;shape=mxgraph.android.phone2;strokeColor=#c0c0c0;" vertex="1" parent="1">
          <mxGeometry x="1660" y="122.5" width="60" height="100" as="geometry" />
        </mxCell>
        <mxCell id="rU6CvFpPGq4p54nIvDIV-92" value="&lt;div style=&quot;background-color:#1e1f22;color:#ffffff&quot;&gt;&lt;pre style=&quot;font-family:&#39;JetBrains Mono&#39;,monospace;font-size:9.0pt;&quot;&gt;&lt;span style=&quot;color:#e6da74;&quot;&gt;/mmba/api/phone/v1/dial&lt;/span&gt;&lt;/pre&gt;&lt;/div&gt;" style="text;whiteSpace=wrap;html=1;" vertex="1" parent="1">
          <mxGeometry x="1500" y="570" width="170" height="60" as="geometry" />
        </mxCell>
      </root>
    </mxGraphModel>
  </diagram>
</mxfile>
